HIERARCHY
ROOT SpineBase
{
  OFFSET 0.000000 0.000000 0.000000
  CHANNELS 6 Xposition Yposition Zposition Zrotation Xrotation Yrotation
  JOINT SpineMid
  {
    OFFSET 0.000000 29.136125 0.000000
    CHANNELS 3 Zrotation Xrotation Yrotation
    JOINT SpineShoulder
    {
      OFFSET 0.143058 21.497918 -0.615350
      CHANNELS 3 Zrotation Xrotation Yrotation
      JOINT Neck
      {
        OFFSET 0.131940 7.075263 -0.511642
        CHANNELS 3 Zrotation Xrotation Yrotation
        JOINT Head
        {
          OFFSET -1.183048 10.297721 5.641691
          CHANNELS 3 Zrotation Xrotation Yrotation
          End Site
          {
            OFFSET 0 0 0
          }
        }
      }
      JOINT ShoulderLeft
      {
        OFFSET -3.931457 -6.267558 -8.957409
        CHANNELS 3 Zrotation Xrotation Yrotation
        JOINT ElbowLeft
        {
          OFFSET -9.596033 -5.128688 18.282296
          CHANNELS 3 Zrotation Xrotation Yrotation
          JOINT WristLeft
          {
            OFFSET -6.828419 12.355047 17.012770
            CHANNELS 3 Zrotation Xrotation Yrotation
            JOINT HandLeft
            {
              OFFSET -6.414487 4.123789 -0.717354
              CHANNELS 3 Zrotation Xrotation Yrotation
              JOINT HandTipLeft
              {
                OFFSET -2.679566 0.582793 0.130541
                CHANNELS 3 Zrotation Xrotation Yrotation
                End Site
                {
                  OFFSET 0 0 0
                }
              }
              JOINT ThumbLeft
              {
                OFFSET 2.317241 0.882029 -2.882621
                CHANNELS 3 Zrotation Xrotation Yrotation
                End Site
                {
                  OFFSET 0 0 0
                }
              }
            }
          }
        }
      }
      JOINT ShoulderRight
      {
        OFFSET 11.422690 -6.390599 8.860190
        CHANNELS 3 Zrotation Xrotation Yrotation
        JOINT ElbowRight
        {
          OFFSET -10.272835 -15.452847 -14.943074
          CHANNELS 3 Zrotation Xrotation Yrotation
          JOINT WristRight
          {
            OFFSET -7.286110 -19.386064 -6.262508
            CHANNELS 3 Zrotation Xrotation Yrotation
            JOINT HandRight
            {
              OFFSET -1.972962 -7.188684 -1.212645
              CHANNELS 3 Zrotation Xrotation Yrotation
              JOINT HandTipRight
              {
                OFFSET -3.761920 -6.944322 0.391971
                CHANNELS 3 Zrotation Xrotation Yrotation
                End Site
                {
                  OFFSET 0 0 0
                }
              }
              JOINT ThumbRight
              {
                OFFSET 4.833985 -0.966593 1.058558
                CHANNELS 3 Zrotation Xrotation Yrotation
                End Site
                {
                  OFFSET 0 0 0
                }
              }
            }
          }
        }
      }
    }
  }
  JOINT HipLeft
  {
    OFFSET -3.532464 1.259914 -0.130965
    CHANNELS 3 Zrotation Xrotation Yrotation
    JOINT KneeLeft
    {
      OFFSET 17.697297 -24.278387 -6.648610
      CHANNELS 3 Zrotation Xrotation Yrotation
      JOINT AnkleLeft
      {
        OFFSET -5.545501 -28.893619 7.042396
        CHANNELS 3 Zrotation Xrotation Yrotation
        JOINT FootLeft
        {
          OFFSET 7.017477 -2.381407 -8.612276
          CHANNELS 3 Zrotation Xrotation Yrotation
          End Site
          {
            OFFSET 0 0 0
          }
        }
      }
    }
  }
  JOINT HipRight
  {
    OFFSET 4.540725 0.653997 -6.487828
    CHANNELS 3 Zrotation Xrotation Yrotation
    JOINT KneeRight
    {
      OFFSET 2.933415 -21.479587 -1.822241
      CHANNELS 3 Zrotation Xrotation Yrotation
      JOINT AnkleRight
      {
        OFFSET 2.606724 -30.127276 4.848559
        CHANNELS 3 Zrotation Xrotation Yrotation
        JOINT FootRight
        {
          OFFSET 7.201305 -2.287444 -8.805990
          CHANNELS 3 Zrotation Xrotation Yrotation
          End Site
          {
            OFFSET 0 0 0
          }
        }
      }
    }
  }
}
MOTION
Frames: 6
Frame Time: 0.033333
-43.761742 55.956850 333.269169 1.037760 11.232056 -16.583387 0.101258 -0.012665 16.448193 0.349702 -0.013757 -0.026024 -3.431243 -20.356622 -0.624745 0.000000 0.000000 0.000000 3.750248 0.627574 -5.684868 -16.712442 -43.512921 0.745774 21.738395 74.201711 58.835768 -63.259727 27.590462 -39.443038 0.000000 0.000000 0.000000 0.000000 0.000000 0.000000 -8.917966 -15.948677 8.369650 -14.024767 19.454354 -3.269313 -2.010215 5.540448 -2.261085 29.770696 13.753465 -12.473683 0.000000 0.000000 0.000000 0.000000 0.000000 0.000000 -12.791136 -20.333274 13.328999 43.219848 32.813944 -10.789524 -36.790126 -33.860018 14.621229 0.000000 0.000000 0.000000 -21.045833 -0.158952 18.404718 27.437226 3.692637 3.286029 -15.083127 -18.193133 20.216102 0.000000 0.000000 0.000000
-44.997123 55.636339 338.186586 -0.311394 11.705616 -8.972311 0.100184 -0.337528 8.924771 0.264536 -0.212603 -0.099751 -1.316518 -21.180076 -0.626814 0.000000 0.000000 0.000000 5.641755 2.271943 -8.946681 -15.735923 -49.771605 3.258887 3.942851 73.121961 71.581284 -62.249519 25.605085 -32.053188 0.000000 0.000000 0.000000 0.000000 0.000000 0.000000 -2.696649 -19.937036 8.381896 -28.397044 25.764970 5.033738 -4.536738 5.668240 -2.603871 43.240974 13.060731 -11.591503 0.000000 0.000000 0.000000 0.000000 0.000000 0.000000 -14.207224 -15.134446 9.181432 44.117807 31.871601 -13.280106 -32.179762 -32.828932 16.152577 0.000000 0.000000 0.000000 -22.766286 0.699400 11.014642 32.427284 9.810255 3.794472 -18.148428 -22.961211 19.282538 0.000000 0.000000 0.000000
-46.526938 55.322344 342.889104 -1.837427 11.823239 -6.378083 0.219789 -0.161017 6.462097 0.357431 -0.091464 -0.149304 -0.288820 -20.733649 -0.200256 0.000000 0.000000 0.000000 7.018305 2.973271 -12.744392 -11.882121 -53.478958 8.638637 -31.366395 50.956123 79.294114 -39.902349 1.714838 -21.779073 0.000000 0.000000 0.000000 0.000000 0.000000 0.000000 1.969231 -23.425600 8.932720 -41.482557 29.322212 13.485477 3.791810 2.111195 -3.844803 35.319771 18.733408 -15.614854 0.000000 0.000000 0.000000 0.000000 0.000000 0.000000 -12.981869 -10.736479 10.363906 42.009590 27.722384 -13.661628 -32.543288 -35.785200 16.660236 0.000000 0.000000 0.000000 -23.381768 2.790778 9.396518 34.941189 12.443858 4.505989 -20.154230 -26.814384 18.041798 0.000000 0.000000 0.000000
-47.295704 55.188763 348.119643 -2.581283 12.082742 -3.459248 0.238385 -0.264282 3.604213 0.391195 -0.063062 -0.176944 0.099695 -21.430752 -0.057135 0.000000 0.000000 0.000000 11.659885 9.175987 -18.082854 -9.948003 -64.638002 15.608393 -39.901774 40.211196 60.175314 -28.155776 -10.611039 -3.185593 0.000000 0.000000 0.000000 0.000000 0.000000 0.000000 15.435907 -31.142239 8.441724 -69.203034 28.670971 33.249400 4.904525 -0.396544 -4.839526 36.559646 24.007509 -18.293387 0.000000 0.000000 0.000000 0.000000 0.000000 0.000000 -13.016492 -5.664879 11.920191 40.355424 22.875245 -14.850258 -33.263603 -40.112381 16.634716 0.000000 0.000000 0.000000 -25.481988 6.432290 7.952877 37.400176 13.557811 5.708700 -21.986038 -30.830048 17.222507 0.000000 0.000000 0.000000
-47.561525 55.316871 352.565003 -2.660734 12.657856 -1.048755 0.141935 -0.006983 1.203263 0.383457 0.044822 -0.192907 -0.103011 -23.035500 -0.024063 0.000000 0.000000 0.000000 9.215843 5.319874 -22.164117 0.440350 -59.307882 26.649374 -41.677442 37.186785 56.670599 -30.505343 -7.387435 -9.251136 0.000000 0.000000 0.000000 0.000000 0.000000 0.000000 21.761639 -34.471497 8.072008 -82.389679 19.211606 41.326369 5.874037 -2.688740 -6.667501 41.965233 32.068451 -22.738930 0.000000 0.000000 0.000000 0.000000 0.000000 0.000000 -13.492450 -1.254926 13.585543 37.928397 19.267761 -16.969576 -27.535677 -42.065361 13.464381 0.000000 0.000000 0.000000 -27.760823 9.873625 6.909110 38.701089 13.833370 6.846074 -23.033468 -34.362821 17.216053 0.000000 0.000000 0.000000
-47.178649 55.746672 356.549052 -2.034538 13.024673 2.366348 0.065778 -0.110419 -2.270176 0.396493 0.135849 -0.169422 -1.245349 -24.368404 -0.163176 0.000000 0.000000 0.000000 5.048593 1.008448 -25.478689 6.034996 -51.145950 32.061572 -42.267807 34.509474 52.454965 -22.582987 -10.022625 -8.249697 0.000000 0.000000 0.000000 0.000000 0.000000 0.000000 26.093544 -37.812605 9.423268 -90.468561 13.434245 46.694541 5.294379 -3.913022 -8.019439 42.539311 32.939174 -22.651951 0.000000 0.000000 0.000000 0.000000 0.000000 0.000000 -17.153363 2.504390 13.882252 40.532991 16.656919 -19.022113 -33.821311 -51.373218 2.823776 0.000000 0.000000 0.000000 -29.673412 14.052781 4.947766 39.083135 13.837723 7.819103 -23.926681 -37.580709 17.806060 0.000000 0.000000 0.000000
